#!OML:ASF F:\VICON\USERDATA\INSTALL\SteveWalk\SteveWalk.ASF
:FULLY-SPECIFIED
:DEGREES
76
root -0.672532 16.1606 -29.1614 15.9382 8.83502 4.02399
lowerback -13.3992 -3.3742 -5.78034
upperback -4.04116 -3.65764 -0.593533
thorax 3.55135 -1.82007 2.02906
lowerneck -2.86076 -2.09622 0.588064
upperneck 8.08722 -2.98475 1.74183
head 3.10275 -1.40181 0.354606
rclavicle 4.67858e-014 5.96354e-015
rhumerus -81.4537 -37.3431 -23.1933
rradius 11.5632
rwrist 41.7516
rhand -14.5075 -34.3802
rfingers 7.12502
rthumb 11.6397 -64.0369
lclavicle 4.67858e-014 5.96354e-015
lhumerus -13.9331 -5.42656 79.4195
lradius 38.124
lwrist 8.44623
lhand -21.2601 -17.1261
lfingers 7.12502
lthumb 5.12324 12.792
rfemur -48.8257 -8.67148 22.6261
rtibia 21.5995
rfoot -12.7534 0.887396
rtoes -15.1584
lfemur -6.75406 6.26941 -25.1134
ltibia 20.8064
lfoot -26.7156 -13.9137
ltoes -1.6876
77
root -0.664434 16.1428 -28.9414 15.9512 9.79726 4.4455
lowerback -13.4222 -3.71472 -5.99336
upperback -3.91243 -4.07187 -0.589047
thorax 3.74639 -2.03165 2.07341
lowerneck -2.95503 -2.13121 0.612206
upperneck 7.77251 -3.02234 1.67328
head 3.01144 -1.42475 0.327286
rclavicle 2.83579e-015 -5.96354e-016
rhumerus -83.021 -37.4292 -20.5659
rradius 11.4112
rwrist 43.423
rhand -14.3632 -34.2366
rfingers 7.12502
rthumb 11.7788 -63.8854
lclavicle 2.83579e-015 -5.96354e-016
lhumerus -13.046 -5.50868 79.3358
lradius 38.6492
lwrist 8.18763
lhand -21.232 -17.256
lfingers 7.12502
lthumb 5.15031 12.6614
rfemur -48.9365 -9.58353 22.4242
rtibia 20.6716
rfoot -13.3111 2.16297
rtoes -14.0872
lfemur -5.2361 5.51154 -25.0839
ltibia 19.5818
lfoot -26.4331 -14.0795
ltoes -3.38509
78
root -0.659385 16.114 -28.7242 16.0466 10.3396 4.54317
lowerback -13.5855 -3.87153 -5.92987
upperback -3.91121 -4.27677 -0.533687
thorax 3.85299 -2.13445 2.04956
lowerneck -2.80581 -2.09421 0.614936
upperneck 7.57522 -2.9672 1.67861
head 2.91591 -1.39988 0.333035
rclavicle 4.45091e-014 1.53064e-014
rhumerus -85.3319 -37.5069 -16.7486
rradius 11.1709
rwrist 46.0719
rhand -14.0841 -33.5827
rfingers 7.12502
rthumb 12.048 -63.2159
lclavicle 4.45091e-014 1.53064e-014
lhumerus -12.3888 -5.51046 79.2706
lradius 39.2249
lwrist 8.04087
lhand -21.1709 -17.6149
lfingers 7.12502
lthumb 5.20929 12.301
rfemur -49.3429 -10.1125 22.5661
rtibia 20.1131
rfoot -13.5197 3.52455
rtoes -12.3171
lfemur -3.88829 4.90057 -24.8568
ltibia 18.3936
lfoot -25.9152 -13.9935
ltoes -4.61968
79
root -0.655213 16.0764 -28.5125 16.1993 10.5224 4.56888
lowerback -13.7403 -3.89472 -5.84835
upperback -3.98947 -4.3112 -0.48378
thorax 3.85532 -2.1493 2.044
lowerneck -2.55096 -2.11616 0.577553
upperneck 7.47267 -2.98988 1.68946
head 2.83446 -1.41426 0.34551
rclavicle -8.44524e-015 -1.78906e-015
rhumerus -85.8846 -37.0707 -16.0915
rradius 11.2038
rwrist 46.2258
rhand -13.2701 -33.9551
rfingers 7.12502
rthumb 12.8328 -63.5406
lclavicle -8.44524e-015 -1.78906e-015
lhumerus -11.9845 -5.35761 79.1654
lradius 40.0323
lwrist 7.98312
lhand -20.6611 -18.0253
lfingers 7.12502
lthumb 5.70152 11.878
rfemur -49.7984 -10.3234 22.7818
rtibia 19.6275
rfoot -13.584 4.47301
rtoes -13.7777
lfemur -2.77919 4.53798 -24.6685
ltibia 17.5078
lfoot -25.4781 -13.724
ltoes -5.93985
80
root -0.658689 16.0477 -28.2948 16.2301 10.7903 4.56275
lowerback -13.9137 -4.00032 -5.88058
upperback -3.95824 -4.4386 -0.339396
thorax 4.00626 -2.21578 2.17779
lowerneck -2.44694 -2.14852 0.318151
upperneck 7.50613 -3.03047 1.84262
head 2.83446 -1.43691 0.438847
rclavicle -4.17137e-015 9.44227e-015
rhumerus -85.1358 -36.4169 -17.4326
rradius 11.3701
rwrist 44.7714
rhand -12.746 -34.5664
rfingers 7.12502
rthumb 13.338 -64.1195
lclavicle -4.17137e-015 9.44227e-015
lhumerus -11.6466 -4.94234 79.125
lradius 40.8276
lwrist 7.79481
lhand -20.3487 -18.2703
lfingers 7.12502
lthumb 6.00322 11.6246
rfemur -49.7399 -9.85283 22.4222
rtibia 19.2241
rfoot -13.6921 4.32518
rtoes -15.5311
lfemur -1.66476 4.03642 -24.3524
ltibia 16.9537
lfoot -25.1876 -13.4757
ltoes -7.05201
81
root -0.656914 16.0315 -28.0736 16.2197 11.0799 4.43247
lowerback -14.0205 -4.08918 -5.66097
upperback -3.90825 -4.5852 -0.180713
thorax 4.12637 -2.29062 2.18574
lowerneck -2.63523 -2.09147 0.0729861
upperneck 7.66991 -2.95675 1.98364
head 2.9319 -1.39986 0.526293
rclavicle 1.12259e-014 2.00276e-014
rhumerus -85.4785 -36.182 -16.6678
rradius 11.3596
rwrist 45.063
rhand -12.8045 -34.3764
rfingers 7.12502
rthumb 13.2816 -63.9332
lclavicle 1.12259e-014 2.00276e-014
lhumerus -11.3409 -4.57017 79.1034
lradius 41.529
lwrist 7.61189
lhand -20.442 -18.3133
lfingers 7.12502
lthumb 5.91306 11.5842
rfemur -49.4173 -9.17841 21.9482
rtibia 18.962
rfoot -13.5261 3.99891
rtoes -14.8494
lfemur -0.698504 3.30176 -23.9377
ltibia 16.7263
lfoot -24.9061 -13.0892
ltoes -8.9122
82
root -0.645533 16.0083 -27.8537 16.3088 11.1544 4.34085
lowerback -14.1351 -4.07402 -5.33916
upperback -3.88695 -4.60659 -0.0986523
thorax 4.19591 -2.30124 2.08063
lowerneck -2.8424 -2.01369 0.0310267
upperneck 7.59914 -2.84708 1.94241
head 2.94542 -1.34729 0.522173
rclavicle -6.05293e-015 1.06163e-014
rhumerus -86.4348 -36.2736 -14.8378
rradius 11.2915
rwrist 46.2583
rhand -12.7827 -34.0259
rfingers 7.12502
rthumb 13.3027 -63.5813
lclavicle -6.05293e-015 1.06163e-014
lhumerus -11.0972 -4.3017 79.0457
lradius 42.2248
lwrist 7.55655
lhand -20.4689 -18.4835
lfingers 7.12502
lthumb 5.88709 11.4147
rfemur -49.3101 -8.59622 21.5685
rtibia 19.0413
rfoot -12.8119 3.53106
rtoes -14.7644
lfemur 0.0548338 2.66881 -23.7049
ltibia 16.6749
lfoot -24.7403 -12.3388
ltoes -12.0099
83
root -0.642648 15.9745 -27.6328 16.349 11.2027 4.07687
lowerback -14.2191 -4.05271 -5.01321
upperback -3.89223 -4.62997 0.100287
thorax 4.23008 -2.31188 2.0982
lowerneck -2.86329 -2.02808 0.16378
upperneck 7.37773 -2.8389 1.5307
head 2.86371 -1.35504 0.367684
rclavicle -2.4435e-014 1.00883e-014
rhumerus -87.1483 -36.3345 -13.2895
rradius 11.2739
rwrist 47.2774
rhand -12.6182 -33.9811
rfingers 7.12502
rthumb 13.4612 -63.5261
lclavicle -2.4435e-014 1.00883e-014
lhumerus -11.1436 -3.88812 79.1173
lradius 43.061
lwrist 7.54356
lhand -20.741 -18.6155
lfingers 7.12502
lthumb 5.62437 11.2898
rfemur -49.3594 -7.7882 21.3812
rtibia 19.6384
rfoot -11.386 2.01491
rtoes -19.8037
lfemur 0.825083 2.0939 -23.2503
ltibia 16.6391
lfoot -24.3597 -11.7591
ltoes -13.0022
84
root -0.639207 15.9552 -27.4092 16.3639 11.298 3.70472
lowerback -14.229 -4.03044 -4.5221
upperback -4.02474 -4.68424 0.330316
thorax 4.08207 -2.33203 2.06011
lowerneck -2.66415 -2.08425 0.310911
upperneck 7.26663 -2.88454 1.05884
head 2.77786 -1.39094 0.192535
rclavicle 4.1077e-015 2.54444e-014
rhumerus -88.2971 -36.3012 -10.9378
rradius 11.1753
rwrist 49.0267
rhand -12.668 -33.8619
rfingers 7.12502
rthumb 13.4133 -63.4101
lclavicle 4.1077e-015 2.54444e-014
lhumerus -11.6299 -3.53755 79.2429
lradius 44.0494
lwrist 7.77212
lhand -21.1771 -18.6778
lfingers 7.12502
lthumb 5.20334 11.2383
rfemur -49.5825 -7.45182 21.7608
rtibia 20.7952
rfoot -8.94382 0.818187
rtoes -25.4285
lfemur 1.58953 1.55452 -22.6788
ltibia 16.562
lfoot -23.7121 -11.1977
ltoes -15.2747
85
root -0.625337 15.9556 -27.1784 16.4291 11.3626 3.59341
lowerback -14.3096 -4.02205 -4.12265
upperback -4.15471 -4.73263 0.432751
thorax 3.97017 -2.35059 1.93592
lowerneck -2.60333 -2.05341 0.312623
upperneck 7.31044 -2.83309 0.914616
head 2.77846 -1.36998 0.14826
rclavicle -3.79026e-014 1.63997e-014
rhumerus -90.5204 -36.3942 -6.70836
rradius 10.9413
rwrist 52.3383
rhand -12.842 -33.3712
rfingers 7.12502
rthumb 13.2455 -62.9304
lclavicle -3.79026e-014 1.63997e-014
lhumerus -12.0142 -3.28415 79.3227
lradius 44.7685
lwrist 8.18673
lhand -21.6545 -18.9056
lfingers 7.12502
lthumb 4.74243 11.0213
rfemur -49.7954 -7.52298 22.0171
rtibia 22.4352
rfoot -6.00681 0.734171
rtoes -23.8328
lfemur 2.33487 0.894348 -22.4414
ltibia 16.5082
lfoot -22.9714 -10.7253
ltoes -19.9556
86
root -0.608962 15.9635 -26.9393 16.4411 11.3571 3.47879
lowerback -14.4478 -4.01745 -3.72285
upperback -4.17971 -4.78292 0.542514
thorax 4.00028 -2.37386 1.81081
lowerneck -2.76768 -1.97051 0.343262
upperneck 7.33669 -2.70997 0.704203
head 2.8135 -1.31418 0.0776452
rclavicle 8.32908e-014 2.08724e-014
rhumerus -91.3864 -36.4622 -4.76107
rradius 10.8773
rwrist 53.8324
rhand -12.7661 -33.367
rfingers 7.12502
rthumb 13.3187 -62.9214
lclavicle 8.32908e-014 2.08724e-014
lhumerus -12.1909 -2.84844 79.4137
lradius 45.2329
lwrist 8.5611
lhand -22.1783 -19.1393
lfingers 7.12502
lthumb 4.23657 10.7983
rfemur -49.9083 -7.63006 22.2425
rtibia 24.4594
rfoot -3.78206 1.09984
rtoes -20.1882
lfemur 3.11794 0.0169944 -22.2361
ltibia 16.5357
lfoot -21.7787 -10.8607
ltoes -22.2851
87
root -0.590891 15.966 -26.702 16.4158 11.094 3.16599
lowerback -14.6236 -3.90002 -3.08158
upperback -4.15134 -4.71987 0.665372
thorax 4.08241 -2.34128 1.5815
lowerneck -2.91339 -1.9159 0.405828
upperneck 7.24773 -2.62224 0.452295
head 2.80551 -1.27729 -0.0118846
rclavicle -2.97897e-014 6.16232e-015
rhumerus -90.5472 -36.5409 -5.78811
rradius 10.9638
rwrist 52.9555
rhand -12.7033 -33.9317
rfingers 7.12502
rthumb 13.3791 -63.4821
lclavicle -2.97897e-014 6.16232e-015
lhumerus -12.5093 -2.21992 79.4966
lradius 45.8101
lwrist 8.81024
lhand -22.5791 -19.3264
lfingers 7.12502
lthumb 3.84957 10.6186
rfemur -50.2057 -7.65949 22.7608
rtibia 26.6744
rfoot -2.63304 1.64036
rtoes -21.1569
lfemur 3.84216 -0.795358 -21.9734
ltibia 16.7059
lfoot -20.325 -10.5675
ltoes -25.1107
88
root -0.57637 15.9585 -26.4732 16.4531 10.7645 2.83864
lowerback -14.7057 -3.76346 -2.42244
upperback -4.18791 -4.63976 0.782425
thorax 4.04351 -2.29843 1.34766
lowerneck -3.28794 -1.82155 0.3666
upperneck 7.45352 -2.49194 0.374078
head 2.94487 -1.21456 -0.0314929
rclavicle -1.65426e-014 -7.35503e-015
rhumerus -90.6458 -36.7626 -5.23159
rradius 11.0102
rwrist 53.4416
rhand -12.8315 -34.2444
rfingers 7.12502
rthumb 13.2556 -63.8029
lclavicle -1.65426e-014 -7.35503e-015
lhumerus -13.1873 -1.46695 79.5811
lradius 46.5975
lwrist 9.13405
lhand -22.7703 -19.6558
lfingers 7.12502
lthumb 3.66495 10.2924
rfemur -50.4905 -7.17182 22.944
rtibia 28.4798
rfoot -2.09088 1.39052
rtoes -24.1836
lfemur 3.83069 -1.42745 -21.7295
ltibia 18.1483
lfoot -19.9282 -8.79549
ltoes -33.6013
